<?xml version="1.0" encoding="UTF-8"?>
<svg id="Layer_2" data-name="Layer 2" xmlns="http://www.w3.org/2000/svg" xmlns:xlink="http://www.w3.org/1999/xlink" viewBox="0 0 1920 1080">
  <defs>
    <style>
      .cls-1 {
        fill: #e4ac40;
      }

      .cls-1, .cls-2, .cls-3, .cls-4 {
        stroke-width: 0px;
      }

      .cls-2, .cls-5 {
        fill: #71c8d3;
      }

      .cls-3 {
        fill: #048975;
      }

      .cls-6 {
        clip-path: url(#clippath);
      }

      .cls-4 {
        fill: #774e1f;
      }
    </style>
    <clipPath id="clippath">
      <rect class="cls-2" width="1920" height="1080"/>
    </clipPath>
  </defs>
  <g id="Layer_1-2" data-name="Layer 1">
    <g>
      <rect class="cls-5" width="1920" height="1080"/>
      <g class="cls-6">
        <g>
          <polygon class="cls-3" points="427.93 45.6 287.24 -95.09 160.96 31.18 34.69 -95.09 -91.59 31.18 -217.87 -95.09 -358.56 45.6 -217.87 186.29 -91.59 60.02 34.69 186.29 160.96 60.02 287.24 186.29 427.93 45.6"/>
          <polygon class="cls-1" points="280.99 16.18 300.74 -29.21 300.72 16.82 349.68 -1.61 317.56 30.18 377.69 46.44 314.18 54.96 347.28 102.43 295.03 63.94 275.8 120.41 275.3 60.3 227.93 86.8 263.92 48.94 208.04 38.11 266.15 25.27 235.69 -13.05 280.99 16.18"/>
          <polygon class="cls-1" points="61.97 34.89 107.09 55.25 61.07 54.61 78.83 103.81 47.48 71.27 30.41 131.17 22.75 67.56 -25.16 100.02 14.02 48.29 -42.18 28.31 17.94 28.61 -7.93 -19.11 29.44 17.39 41.02 -38.34 53.08 19.93 91.8 -10.01 61.97 34.89"/>
          <circle class="cls-3" cx="165.43" cy="225.98" r="58.33"/>
          <polygon class="cls-3" points="1192.01 45.6 1051.32 -95.09 925.04 31.18 798.76 -95.09 672.49 31.18 546.21 -95.09 405.52 45.6 546.21 186.29 672.49 60.02 798.76 186.29 925.04 60.02 1051.32 186.29 1192.01 45.6"/>
          <polygon class="cls-1" points="1045.06 16.18 1064.82 -29.21 1064.8 16.82 1113.76 -1.61 1081.64 30.18 1141.77 46.44 1078.26 54.96 1111.36 102.43 1059.11 63.94 1039.88 120.41 1039.38 60.3 992.01 86.8 1028 48.94 972.12 38.11 1030.23 25.27 999.77 -13.05 1045.06 16.18"/>
          <polygon class="cls-1" points="532.54 16.18 552.29 -29.21 552.27 16.82 601.23 -1.61 569.11 30.18 629.24 46.44 565.73 54.96 598.83 102.43 546.58 63.94 527.35 120.41 526.85 60.3 479.48 86.8 515.47 48.94 459.59 38.11 517.7 25.27 487.24 -13.05 532.54 16.18"/>
          <polygon class="cls-1" points="826.05 34.89 871.17 55.25 825.15 54.61 842.91 103.81 811.56 71.27 794.49 131.17 786.82 67.56 738.92 100.02 778.1 48.29 721.9 28.31 782.01 28.61 756.15 -19.11 793.52 17.39 805.1 -38.34 817.16 19.93 855.88 -10.01 826.05 34.89"/>
          <circle class="cls-3" cx="663.56" cy="225.98" r="58.33"/>
          <circle class="cls-3" cx="405.52" cy="225.98" r="58.33"/>
          <circle class="cls-3" cx="913.79" cy="225.98" r="58.33"/>
          <polygon class="cls-3" points="1956.09 45.6 1815.39 -95.09 1689.12 31.18 1562.84 -95.09 1436.57 31.18 1310.29 -95.09 1169.6 45.6 1310.29 186.29 1436.57 60.02 1562.84 186.29 1689.12 60.02 1815.39 186.29 1956.09 45.6"/>
          <polygon class="cls-1" points="1809.14 16.18 1828.89 -29.21 1828.88 16.82 1877.83 -1.61 1845.72 30.18 1905.84 46.44 1842.34 54.96 1875.44 102.43 1823.19 63.94 1803.96 120.41 1803.46 60.3 1756.09 86.8 1792.08 48.94 1736.2 38.11 1794.31 25.27 1763.85 -13.05 1809.14 16.18"/>
          <polygon class="cls-1" points="1296.61 16.18 1316.37 -29.21 1316.35 16.82 1365.31 -1.61 1333.19 30.18 1393.32 46.44 1329.81 54.96 1362.91 102.43 1310.66 63.94 1291.43 120.41 1290.93 60.3 1243.56 86.8 1279.55 48.94 1223.67 38.11 1281.78 25.27 1251.32 -13.05 1296.61 16.18"/>
          <polygon class="cls-1" points="1590.13 34.89 1635.25 55.25 1589.23 54.61 1606.99 103.81 1575.64 71.27 1558.57 131.17 1550.9 67.56 1503 100.02 1542.18 48.29 1485.97 28.31 1546.09 28.61 1520.23 -19.11 1557.6 17.39 1569.18 -38.34 1581.24 19.93 1619.96 -10.01 1590.13 34.89"/>
          <circle class="cls-3" cx="1427.64" cy="225.98" r="58.33"/>
          <circle class="cls-3" cx="1169.6" cy="225.98" r="58.33"/>
          <circle class="cls-3" cx="1685.61" cy="225.98" r="58.33"/>
          <circle class="cls-3" cx="1945.29" cy="225.98" r="58.33"/>
          <polygon class="cls-3" points="427.93 427.1 287.24 286.41 160.96 412.68 34.69 286.41 -91.59 412.68 -217.87 286.41 -358.56 427.1 -217.87 567.79 -91.59 441.52 34.69 567.79 160.96 441.52 287.24 567.79 427.93 427.1"/>
          <polygon class="cls-1" points="280.99 397.68 300.74 352.29 300.72 398.32 349.68 379.89 317.56 411.68 377.69 427.94 314.18 436.46 347.28 483.93 295.03 445.44 275.8 501.91 275.3 441.79 227.93 468.3 263.92 430.44 208.04 419.61 266.15 406.77 235.69 368.45 280.99 397.68"/>
          <polygon class="cls-1" points="61.97 416.39 107.09 436.75 61.07 436.11 78.83 485.31 47.48 452.77 30.41 512.67 22.75 449.06 -25.16 481.52 14.02 429.79 -42.18 409.81 17.94 410.11 -7.93 362.39 29.44 398.88 41.02 343.16 53.08 401.43 91.8 371.49 61.97 416.39"/>
          <circle class="cls-3" cx="165.43" cy="607.48" r="58.33"/>
          <polygon class="cls-3" points="1192.01 427.1 1051.32 286.41 925.04 412.68 798.76 286.41 672.49 412.68 546.21 286.41 405.52 427.1 546.21 567.79 672.49 441.52 798.76 567.79 925.04 441.52 1051.32 567.79 1192.01 427.1"/>
          <polygon class="cls-1" points="1045.06 397.68 1064.82 352.29 1064.8 398.32 1113.76 379.89 1081.64 411.68 1141.77 427.94 1078.26 436.46 1111.36 483.93 1059.11 445.44 1039.88 501.91 1039.38 441.79 992.01 468.3 1028 430.44 972.12 419.61 1030.23 406.77 999.77 368.45 1045.06 397.68"/>
          <polygon class="cls-1" points="532.54 397.68 552.29 352.29 552.27 398.32 601.23 379.89 569.11 411.68 629.24 427.94 565.73 436.46 598.83 483.93 546.58 445.44 527.35 501.91 526.85 441.79 479.48 468.3 515.47 430.44 459.59 419.61 517.7 406.77 487.24 368.45 532.54 397.68"/>
          <polygon class="cls-1" points="826.05 416.39 871.17 436.75 825.15 436.11 842.91 485.31 811.56 452.77 794.49 512.67 786.82 449.06 738.92 481.52 778.1 429.79 721.9 409.81 782.01 410.11 756.15 362.39 793.52 398.88 805.1 343.16 817.16 401.43 855.88 371.49 826.05 416.39"/>
          <circle class="cls-3" cx="663.56" cy="607.48" r="58.33"/>
          <circle class="cls-3" cx="405.52" cy="607.48" r="58.33"/>
          <circle class="cls-3" cx="913.79" cy="607.48" r="58.33"/>
          <polygon class="cls-3" points="1956.09 427.1 1815.39 286.41 1689.12 412.68 1562.84 286.41 1436.57 412.68 1310.29 286.41 1169.6 427.1 1310.29 567.79 1436.57 441.52 1562.84 567.79 1689.12 441.52 1815.39 567.79 1956.09 427.1"/>
          <polygon class="cls-1" points="1809.14 397.68 1828.89 352.29 1828.88 398.32 1877.83 379.89 1845.72 411.68 1905.84 427.94 1842.34 436.46 1875.44 483.93 1823.19 445.44 1803.96 501.91 1803.46 441.79 1756.09 468.3 1792.08 430.44 1736.2 419.61 1794.31 406.77 1763.85 368.45 1809.14 397.68"/>
          <polygon class="cls-1" points="1296.61 397.68 1316.37 352.29 1316.35 398.32 1365.31 379.89 1333.19 411.68 1393.32 427.94 1329.81 436.46 1362.91 483.93 1310.66 445.44 1291.43 501.91 1290.93 441.79 1243.56 468.3 1279.55 430.44 1223.67 419.61 1281.78 406.77 1251.32 368.45 1296.61 397.68"/>
          <polygon class="cls-1" points="1590.13 416.39 1635.25 436.75 1589.23 436.11 1606.99 485.31 1575.64 452.77 1558.57 512.67 1550.9 449.06 1503 481.52 1542.18 429.79 1485.97 409.81 1546.09 410.11 1520.23 362.39 1557.6 398.88 1569.18 343.16 1581.24 401.43 1619.96 371.49 1590.13 416.39"/>
          <circle class="cls-3" cx="1427.64" cy="607.48" r="58.33"/>
          <circle class="cls-3" cx="1169.6" cy="607.48" r="58.33"/>
          <circle class="cls-3" cx="1685.61" cy="607.48" r="58.33"/>
          <circle class="cls-3" cx="1945.29" cy="607.48" r="58.33"/>
          <polygon class="cls-3" points="427.93 810.23 287.24 669.54 160.96 795.81 34.69 669.54 -91.59 795.81 -217.87 669.54 -358.56 810.23 -217.87 950.92 -91.59 824.65 34.69 950.92 160.96 824.65 287.24 950.92 427.93 810.23"/>
          <polygon class="cls-1" points="280.99 780.81 300.74 735.42 300.72 781.45 349.68 763.02 317.56 794.81 377.69 811.07 314.18 819.59 347.28 867.05 295.03 828.57 275.8 885.04 275.3 824.92 227.93 851.43 263.92 813.57 208.04 802.74 266.15 789.9 235.69 751.58 280.99 780.81"/>
          <polygon class="cls-1" points="61.97 799.52 107.09 819.88 61.07 819.24 78.83 868.44 47.48 835.9 30.41 895.8 22.75 832.19 -25.16 864.65 14.02 812.92 -42.18 792.94 17.94 793.24 -7.93 745.51 29.44 782.01 41.02 726.29 53.08 784.56 91.8 754.62 61.97 799.52"/>
          <circle class="cls-3" cx="165.43" cy="990.61" r="58.33"/>
          <polygon class="cls-3" points="1192.01 810.23 1051.32 669.54 925.04 795.81 798.76 669.54 672.49 795.81 546.21 669.54 405.52 810.23 546.21 950.92 672.49 824.65 798.76 950.92 925.04 824.65 1051.32 950.92 1192.01 810.23"/>
          <polygon class="cls-1" points="1045.06 780.81 1064.82 735.42 1064.8 781.45 1113.76 763.02 1081.64 794.81 1141.77 811.07 1078.26 819.59 1111.36 867.05 1059.11 828.57 1039.88 885.04 1039.38 824.92 992.01 851.43 1028 813.57 972.12 802.74 1030.23 789.9 999.77 751.58 1045.06 780.81"/>
          <polygon class="cls-1" points="532.54 780.81 552.29 735.42 552.27 781.45 601.23 763.02 569.11 794.81 629.24 811.07 565.73 819.59 598.83 867.05 546.58 828.57 527.35 885.04 526.85 824.92 479.48 851.43 515.47 813.57 459.59 802.74 517.7 789.9 487.24 751.58 532.54 780.81"/>
          <polygon class="cls-1" points="826.05 799.52 871.17 819.88 825.15 819.24 842.91 868.44 811.56 835.9 794.49 895.8 786.82 832.19 738.92 864.65 778.1 812.92 721.9 792.94 782.01 793.24 756.15 745.51 793.52 782.01 805.1 726.29 817.16 784.56 855.88 754.62 826.05 799.52"/>
          <circle class="cls-3" cx="663.56" cy="990.61" r="58.33"/>
          <circle class="cls-3" cx="405.52" cy="990.61" r="58.33"/>
          <circle class="cls-3" cx="913.79" cy="990.61" r="58.33"/>
          <polygon class="cls-3" points="1956.09 810.23 1815.39 669.54 1689.12 795.81 1562.84 669.54 1436.57 795.81 1310.29 669.54 1169.6 810.23 1310.29 950.92 1436.57 824.65 1562.84 950.92 1689.12 824.65 1815.39 950.92 1956.09 810.23"/>
          <polygon class="cls-1" points="1809.14 780.81 1828.89 735.42 1828.88 781.45 1877.83 763.02 1845.72 794.81 1905.84 811.07 1842.34 819.59 1875.44 867.05 1823.19 828.57 1803.96 885.04 1803.46 824.92 1756.09 851.43 1792.08 813.57 1736.2 802.74 1794.31 789.9 1763.85 751.58 1809.14 780.81"/>
          <polygon class="cls-1" points="1296.61 780.81 1316.37 735.42 1316.35 781.45 1365.31 763.02 1333.19 794.81 1393.32 811.07 1329.81 819.59 1362.91 867.05 1310.66 828.57 1291.43 885.04 1290.93 824.92 1243.56 851.43 1279.55 813.57 1223.67 802.74 1281.78 789.9 1251.32 751.58 1296.61 780.81"/>
          <polygon class="cls-1" points="1590.13 799.52 1635.25 819.88 1589.23 819.24 1606.99 868.44 1575.64 835.9 1558.57 895.8 1550.9 832.19 1503 864.65 1542.18 812.92 1485.97 792.94 1546.09 793.24 1520.23 745.51 1557.6 782.01 1569.18 726.29 1581.24 784.56 1619.96 754.62 1590.13 799.52"/>
          <circle class="cls-3" cx="1427.64" cy="990.61" r="58.33"/>
          <circle class="cls-3" cx="1169.6" cy="990.61" r="58.33"/>
          <circle class="cls-3" cx="1685.61" cy="990.61" r="58.33"/>
          <circle class="cls-3" cx="1945.29" cy="990.61" r="58.33"/>
          <polygon class="cls-3" points="427.93 1191.73 287.24 1051.04 160.96 1177.31 34.69 1051.04 -91.59 1177.31 -217.87 1051.04 -358.56 1191.73 -217.87 1332.42 -91.59 1206.15 34.69 1332.42 160.96 1206.15 287.24 1332.42 427.93 1191.73"/>
          <polygon class="cls-3" points="1192.01 1191.73 1051.32 1051.04 925.04 1177.31 798.76 1051.04 672.49 1177.31 546.21 1051.04 405.52 1191.73 546.21 1332.42 672.49 1206.15 798.76 1332.42 925.04 1206.15 1051.32 1332.42 1192.01 1191.73"/>
          <polygon class="cls-3" points="1956.09 1191.73 1815.39 1051.04 1689.12 1177.31 1562.84 1051.04 1436.57 1177.31 1310.29 1051.04 1169.6 1191.73 1310.29 1332.42 1436.57 1206.15 1562.84 1332.42 1689.12 1206.15 1815.39 1332.42 1956.09 1191.73"/>
        </g>
        <path class="cls-4" d="M-253.12-62.06c428.11-5.16,699.79,208.76,866.05,555.58,28.19,58.8,74.24,92.82,140.01,106.14,296.36,58.55,311.43,179.8,460.54,393.22,114.86,109.37,313.7,2.65,420.67,115.67,87.43,92.38,167.27,181.45,306.73,198.56,40.66,4.99,232.25-24.23,173.04,13.3-76.69,48.61-154.14,80.19-243.58,100.03-153.39,34.03-241.52-98.75-374.26-118.84-326.65-49.42-699.73,314.6-990.73,33.86-121.48-117.2-179.14-303.86-370.04-323.21-279.65-66.86-564.76,97.31-838.63-10.86-148.65-58.71-339.24-162.56-355.04-332.12-9.83-105.5,312.55,55.06,236.73-137.77-39.59-100.7-169.14-128.77-271.9-117.09-78.12,8.88-78.17-59.15-8.09-84.65,224.2-81.57,449.61-46.09,643.71,65.53,140.53,80.81,453.94,4.63,373.33-189.72C-158.88,26.42-397.46,95.11-537.55,43.58c36.75-93.35,193.75-104.54,284.43-105.63Z"/>
        <path class="cls-4" d="M1397.11-381.03C1812.9-274.55,2020.2,3.28,2090.84,382.32c11.98,64.26,47.71,109.18,107.9,139.21,271.65,133.85,254.66,255.15,343.44,500.58,82.71,135.79,302.99,84.25,377.12,221.51,60.59,112.19,114.68,219.21,245.23,272.09,38.07,15.42,231.14,37.02,164.06,57.93-86.9,27.09-170.1,37.49-261.85,33.41-157.35-7-208.09-158.49-331.36-212.49-303.35-132.9-759.3,122.35-967.9-225.19-87.09-145.09-94.3-340.8-274.07-409.24-253.31-137.54-572.06-52.86-809.02-228.88-128.62-95.54-286.07-245.7-257.22-413.96,17.95-104.69,288.23,134.69,265.05-71.72-12.11-107.79-130.21-168.7-232.73-184.15-77.94-11.74-60.27-77.62,14.21-84.06,238.28-20.59,447.25,72.46,606.09,231.05,115,114.82,438.23,122.68,410.8-86.45-25.28-192.79-274.13-188.42-396.33-274.78,59.89-80.8,214.78-50.75,302.85-28.2Z"/>
      </g>
    </g>
  </g>
</svg>