<?xml version="1.0" encoding="UTF-8"?>
<svg id="Layer_2" data-name="Layer 2" xmlns="http://www.w3.org/2000/svg" viewBox="0 0 104.56 99.47">
  <defs>
    <style>
      .cls-1 {
        fill: #e5ab41;
      }

      .cls-1, .cls-2 {
        stroke-width: 0px;
      }

      .cls-2 {
        fill: #221f1f;
      }
    </style>
  </defs>
  <g id="Layer_1-2" data-name="Layer 1">
    <path class="cls-1" d="M103.6,38.86c4.74,28.94-7.8,57.61-40.57,60.34-29.22,2.43-57.97-11.87-62.19-40.89C-4.15,23.99,13.49,2.14,42.74.24c32.42-2.11,56.11,9.67,60.85,38.62Z"/>
    <g>
      <path class="cls-2" d="M52.27,74.18c-2.36,0-4.71.03-7.07,0-2.29-.03-4.59-.04-6.84-.58-5.45-1.31-8.78-4.73-10.02-10.19-.42-1.83-.5-3.71-.51-5.57-.03-5.41-.03-10.81,0-16.22.01-2.23.12-4.46.77-6.62,1.5-5.02,4.88-8.02,9.94-9.18,1.83-.42,3.7-.5,5.57-.51,5.42-.03,10.84-.04,16.26,0,2.15.01,4.31.12,6.4.71,5.16,1.46,8.25,4.87,9.41,10.07.49,2.18.51,4.4.52,6.62.03,4.67.03,9.35,0,14.02-.02,2.3-.03,4.61-.57,6.87-1.31,5.5-4.76,8.85-10.27,10.07-2.13.47-4.3.49-6.47.52-2.38.03-4.76,0-7.14,0ZM52.28,29.55s0,.05,0,.07c-1.97,0-3.94-.03-5.91,0-2.25.04-4.52,0-6.74.44-3.53.7-5.87,2.74-6.85,6.25-.44,1.56-.53,3.17-.54,4.78-.04,5.03-.08,10.07-.06,15.1,0,2.06,0,4.14.42,6.18.72,3.55,2.77,5.88,6.29,6.85,1.5.41,3.05.52,4.59.53,5.84.02,11.69.03,17.53,0,1.28,0,2.57-.13,3.82-.36,3.58-.67,5.94-2.74,6.92-6.3.43-1.56.52-3.17.53-4.78.03-5.72.02-11.44,0-17.16,0-1.47-.1-2.94-.43-4.38-.57-2.48-1.85-4.45-4.1-5.7-1.62-.9-3.41-1.24-5.25-1.29-3.41-.1-6.83-.15-10.24-.23Z"/>
      <path class="cls-2" d="M52.27,38.03c7.01.03,12.61,5.66,12.58,12.64-.03,6.96-5.7,12.54-12.68,12.5-6.94-.04-12.5-5.72-12.46-12.72.04-6.85,5.71-12.45,12.56-12.42ZM52.28,42.41c-4.5,0-8.17,3.64-8.2,8.16-.03,4.51,3.65,8.21,8.18,8.21,4.54,0,8.2-3.65,8.19-8.19,0-4.51-3.66-8.18-8.17-8.19Z"/>
      <path class="cls-2" d="M65.38,40.47c-1.6.04-2.94-1.24-2.99-2.86-.05-1.59,1.26-2.96,2.85-3,1.63-.04,2.99,1.24,3.03,2.86.04,1.62-1.25,2.96-2.89,3Z"/>
    </g>
  </g>
</svg>