<?xml version="1.0" encoding="UTF-8"?>
<svg id="Layer_2" data-name="Layer 2" xmlns="http://www.w3.org/2000/svg" viewBox="0 0 104.56 99.47">
  <defs>
    <style>
      .cls-1 {
        fill: #e5ab41;
      }

      .cls-1, .cls-2 {
        stroke-width: 0px;
      }

      .cls-2 {
        fill: #221f1f;
      }
    </style>
  </defs>
  <g id="Layer_1-2" data-name="Layer 1">
    <path class="cls-2" d="M103.6,38.86c4.74,28.94-7.8,57.61-40.57,60.34-29.22,2.43-57.97-11.87-62.19-40.89C-4.15,23.99,13.49,2.14,42.74.24c32.42-2.11,56.11,9.67,60.85,38.62Z"/>
    <g>
      <path class="cls-1" d="M29.75,32.39h45.08c-7.59,6.73-15.05,13.35-22.54,19.99-7.5-6.65-14.96-13.27-22.54-19.99Z"/>
      <path class="cls-1" d="M45.04,51.6c2.35,2.09,4.77,4.23,7.24,6.42,2.45-2.18,4.88-4.33,7.29-6.47,5.18,5.21,10.32,10.38,15.44,15.53H29.54c5.12-5.12,10.27-10.26,15.5-15.48Z"/>
      <path class="cls-1" d="M78.26,63.91c-5.08-5.09-10.16-10.18-15.31-15.34,5-4.44,10.11-8.96,15.31-13.58v28.92Z"/>
      <path class="cls-1" d="M26.31,63.95v-28.97c5.2,4.61,10.3,9.13,15.36,13.62-5.13,5.12-10.22,10.21-15.36,15.35Z"/>
    </g>
  </g>
</svg>