<svg width="1466" height="1394" viewBox="0 0 1466 1394" fill="none" xmlns="http://www.w3.org/2000/svg">
<path d="M1451.56 544.58C1517.97 950.154 1342.27 1351.94 883.128 1390.2C473.724 1424.26 70.905 1223.85 11.7782 817.158C-58.1372 336.188 189.019 29.9762 598.843 3.34907C1053.08 -26.221 1385.01 138.867 1451.42 544.58H1451.56Z" fill="#221F1F"/>
<path d="M416.839 453.908H1048.46C942.115 548.224 837.592 640.999 732.649 734.053C627.566 640.859 523.043 548.084 416.839 453.908Z" fill="#E5AB41"/>
<path d="M631.069 723.122C663.995 752.412 697.901 782.403 732.509 813.094C766.836 782.543 800.883 752.412 834.65 722.422C907.227 795.436 979.244 867.89 1050.98 940.063H413.897C485.633 868.31 557.791 796.277 631.069 723.122Z" fill="#E5AB41"/>
<path d="M1096.52 895.638C1025.34 824.305 954.164 752.973 882.007 680.659C952.063 618.436 1023.66 555.091 1096.52 490.345V895.638Z" fill="#E5AB41"/>
<path d="M368.641 896.199V490.205C441.498 554.811 512.955 618.155 583.851 681.079C511.974 752.833 440.658 824.165 368.641 896.199Z" fill="#E5AB41"/>
<path d="M263.009 313.986H1261.01V1071.99H263.009V313.986Z" fill="#221F1F"/>
<path d="M684.001 472.892C642.65 517.208 621.974 526.072 546.655 534.935C499.397 540.844 428.509 555.616 390.111 567.433C328.084 588.114 317.746 596.977 302.977 645.725C289.686 688.564 289.686 715.154 302.977 755.038C317.746 799.354 332.514 811.172 388.634 830.376C425.555 843.671 499.397 858.443 551.086 862.874C630.835 871.737 648.557 879.124 661.849 907.19C689.909 967.756 747.505 979.573 853.837 944.121C960.169 908.668 1122.62 808.218 1155.11 756.516C1209.75 673.792 1140.34 591.069 932.11 490.619C772.611 413.804 741.598 412.327 684.001 472.892ZM917.341 549.707C1029.58 602.886 1116.71 667.883 1116.71 698.904C1116.71 744.698 889.281 885.032 778.519 907.19C737.167 916.054 731.26 911.622 710.584 865.829C689.908 814.126 689.908 814.126 574.715 805.263C425.555 794.923 369.435 774.242 357.62 725.494C333.991 636.862 385.68 607.318 582.099 592.546C682.524 585.16 691.385 580.728 704.677 545.275C732.737 472.892 751.936 472.892 917.341 549.707Z" fill="#E5AB41"/>
</svg>
