<svg width="1466" height="1394" viewBox="0 0 1466 1394" fill="none" xmlns="http://www.w3.org/2000/svg">
<path d="M1451.56 544.58C1517.97 950.154 1342.27 1351.94 883.128 1390.2C473.724 1424.26 70.905 1223.85 11.7782 817.158C-58.1372 336.188 189.019 29.9762 598.843 3.34907C1053.08 -26.221 1385.01 138.867 1451.42 544.58H1451.56Z" fill="#221F1F"/>
<path d="M416.839 453.908H1048.46C942.115 548.224 837.592 640.999 732.649 734.053C627.566 640.859 523.043 548.084 416.839 453.908Z" fill="#E5AB41"/>
<path d="M631.069 723.122C663.995 752.412 697.901 782.403 732.509 813.094C766.836 782.543 800.883 752.412 834.65 722.422C907.227 795.436 979.244 867.89 1050.98 940.063H413.897C485.633 868.31 557.791 796.277 631.069 723.122Z" fill="#E5AB41"/>
<path d="M1096.52 895.638C1025.34 824.305 954.164 752.973 882.007 680.659C952.063 618.436 1023.66 555.091 1096.52 490.345V895.638Z" fill="#E5AB41"/>
<path d="M368.641 896.199V490.205C441.498 554.811 512.955 618.155 583.851 681.079C511.974 752.833 440.658 824.165 368.641 896.199Z" fill="#E5AB41"/>
<path d="M263.009 313.986H1261.01V1071.99H263.009V313.986Z" fill="#221F1F"/>
<path d="M782.016 472.892C823.368 517.208 844.044 526.072 919.362 534.935C966.621 540.844 1037.51 555.616 1075.91 567.433C1137.93 588.114 1148.27 596.977 1163.04 645.725C1176.33 688.564 1176.33 715.154 1163.04 755.038C1148.27 799.354 1133.5 811.172 1077.38 830.376C1040.46 843.671 966.621 858.443 914.932 862.874C835.183 871.737 817.46 879.124 804.169 907.19C776.109 967.756 718.512 979.573 612.18 944.121C505.848 908.668 343.396 808.218 310.906 756.516C256.263 673.792 325.674 591.069 533.908 490.619C693.406 413.804 724.42 412.327 782.016 472.892ZM548.676 549.707C436.437 602.886 349.303 667.883 349.303 698.904C349.303 744.698 576.736 885.032 687.499 907.19C728.85 916.054 734.758 911.622 755.433 865.829C776.109 814.126 776.109 814.126 891.302 805.263C1040.46 794.923 1096.58 774.242 1108.4 725.494C1132.03 636.862 1080.34 607.318 883.918 592.546C783.493 585.16 774.632 580.728 761.341 545.275C733.281 472.892 714.082 472.892 548.676 549.707Z" fill="#E5AB41"/>
</svg>
