<?xml version="1.0" encoding="UTF-8"?>
<svg id="Layer_2" data-name="Layer 2" xmlns="http://www.w3.org/2000/svg" viewBox="0 0 104.56 99.47">
  <defs>
    <style>
      .cls-1 {
        fill: #e5ab41;
      }

      .cls-1, .cls-2 {
        stroke-width: 0px;
      }

      .cls-2 {
        fill: #221f1f;
      }
    </style>
  </defs>
  <g id="Layer_1-2" data-name="Layer 1">
    <path class="cls-1" d="M103.6,38.86c4.74,28.94-7.8,57.61-40.57,60.34-29.22,2.43-57.97-11.87-62.19-40.89C-4.15,23.99,13.49,2.14,42.74.24c32.42-2.11,56.11,9.67,60.85,38.62Z"/>
    <path class="cls-2" d="M79.33,36.87c-.2-3.19-3.27-5.94-6.48-6.02-5.9-.16-11.8-.42-17.7-.41-7.72.02-15.43.26-23.15.4-3.57.07-6.5,2.74-6.82,6.28-.11,1.22-.1,2.45-.19,3.68-.49,7.13-.28,14.25.18,21.37.22,3.47,3.12,6.22,6.6,6.33,6.83.21,13.67.36,20.52.53,6.84-.18,13.7-.33,20.56-.54,3.39-.11,6.26-2.88,6.5-6.25.18-2.61.22-5.23.36-7.84.31-5.85-.01-11.69-.39-17.53ZM47.01,58.38v-17.4c4.71,2.91,9.31,5.76,14.05,8.7-4.73,2.93-9.33,5.78-14.05,8.7Z"/>
  </g>
</svg>